<?xml version="1.0" encoding="UTF-8"?>
<svg width="270px" height="325px" viewBox="0 0 270 325" version="1.1" xmlns="http://www.w3.org/2000/svg" xmlns:xlink="http://www.w3.org/1999/xlink">
    <!-- Generator: Sketch 55.1 (78136) - https://sketchapp.com -->
    <title>Mountains</title>
    <desc>Created with Sketch.</desc>
    <defs>
        <polygon id="path-1" points="1.91846539e-12 0 270 0 270 326 0 326"></polygon>
    </defs>
    <g id="Current-grid-(1097px)" stroke="none" stroke-width="1" fill="none" fill-rule="evenodd">
        <g id="Grid---Content-page---Expanded" transform="translate(0.000000, -774.000000)">
            <g id="Sidebar">
                <g id="Mountains" transform="translate(0.000000, 773.000000)">
                    <mask id="mask-2" fill="white">
                        <use xlink:href="#path-1"></use>
                    </mask>
                    <use id="Mask" fill-opacity="0" fill="#FFFFFF" xlink:href="#path-1"></use>
                    <g opacity="0.5" mask="url(#mask-2)" fill="#FEFEFE">
                        <g transform="translate(-166.000000, 1.000000)">
                            <path d="M77.7907977,372.556259 L352.749571,0.197744746 C352.907323,-0.0193542572 353.212312,-0.0636171607 353.426855,0.0944646375 C353.643503,0.254654193 353.689777,0.560279003 353.529921,0.775270249 L78.5711478,373.133784 C78.4112917,373.350883 78.1084065,373.395146 77.8917595,373.237064 C77.6772158,373.076875 77.6309416,372.773358 77.7907977,372.556259" id="Line-1"></path>
                            <path d="M352.720407,0.775270249 L627.679044,373.133784 C627.8389,373.350883 628.141785,373.395146 628.358432,373.237064 C628.572975,373.076875 628.61925,372.77125 628.459394,372.556259 L353.502861,0.197744746 C353.340901,-0.0193542572 353.038016,-0.0636171607 352.821369,0.0944646375 C352.606826,0.254654193 352.560551,0.558171246 352.720407,0.775270249" id="Line-2"></path>
                            <path d="M78.7907977,463.264281 L353.749571,90.9068105 C353.907323,90.6897121 354.212312,90.6454493 354.426855,90.8035307 C354.643503,90.9637198 354.689777,91.2693437 354.529921,91.4843344 L79.5711478,463.843913 C79.4112917,464.058904 79.1084065,464.105274 78.8917595,463.945085 C78.6772158,463.784896 78.6309416,463.48138 78.7907977,463.264281" id="Line-3"></path>
                            <path d="M353.720407,91.4843344 L628.679044,463.843913 C628.8389,464.058904 629.141785,464.105274 629.358432,463.945085 C629.572975,463.784896 629.61925,463.479272 629.459394,463.264281 L354.502861,90.9068105 C354.340901,90.6897121 354.038016,90.6454493 353.821369,90.8035307 C353.606826,90.9637198 353.560551,91.267236 353.720407,91.4843344" id="Line-4"></path>
                            <path d="M256.021386,60.7968892 C256.181739,60.5802391 256.485566,60.5360678 256.702887,60.6959261 C256.918097,60.853681 256.964515,61.1565705 256.804162,61.3732206 L198.543266,139.867864 C198.382913,140.082411 198.079086,140.128686 197.861765,139.968828 C197.646555,139.808969 197.600137,139.50608 197.76049,139.28943 L256.021386,60.7968892 Z" id="Line-5"></path>
                            <path d="M256.095561,61.4976385 L315.856557,142.238986 C316.016831,142.454037 316.320507,142.500421 316.53772,142.340186 C316.752824,142.18206 316.799219,141.87635 316.638946,141.65919 L256.87795,60.9199507 C256.717676,60.7027907 256.411891,60.6585154 256.196786,60.81875 C255.981682,60.9768762 255.935287,61.2804785 256.095561,61.4976385" id="Line-6"></path>
                            <path d="M140.024673,61.5006379 L257.525396,221.701299 C257.684835,221.919299 257.986932,221.963746 258.203014,221.805008 C258.419097,221.644153 258.463153,221.339376 258.303713,221.121376 L140.802991,60.9207145 C140.643551,60.7027141 140.341455,60.6582674 140.125372,60.8191221 C139.911387,60.9778602 139.865234,61.2826375 140.024673,61.5006379" id="Line-7"></path>
                            <path d="M275.519136,87.9081628 C275.678992,87.6910654 275.981877,87.6468028 276.198524,87.8048834 C276.413067,87.9650718 276.459341,88.2706944 276.299485,88.4856841 L1.34084899,460.845714 C1.18099299,461.060704 0.878107927,461.107074 0.661460974,460.944778 C0.446917391,460.78459 0.400643284,460.481075 0.560499288,460.263977" id="Line-8"></path>
                        </g>
                    </g>
                </g>
            </g>
        </g>
    </g>
</svg>